if (_typeface_js && _typeface_js.loadFace) _typeface_js.loadFace({"glyphs":{"0":{"ha":1416,"x_min":71,"x_max":1347,"o":"m 519 974 l 1186 974 q 1343 882 1319 974 q 1347 853 1347 868 l 1347 846 q 1267 606 1347 795 q 1066 124 1117 230 q 887 0 985 0 l 195 0 q 71 109 92 0 l 71 146 q 202 503 71 205 q 391 911 334 865 q 519 974 438 974 m 406 273 q 483 230 406 230 l 694 230 q 836 277 802 230 q 1015 711 862 314 l 1015 718 q 968 766 1002 766 l 672 766 q 537 612 576 766 q 406 273 408 311 z "},"1":{"ha":742,"x_min":71,"x_max":678,"o":"m 187 971 l 525 971 q 671 888 630 971 q 678 854 678 864 l 678 825 q 580 553 678 773 q 354 0 365 7 l 71 0 l 71 3 l 372 760 l 372 764 l 281 764 q 187 971 187 964 z "},"2":{"ha":1181,"x_min":65,"x_max":1120,"o":"m 294 971 l 967 971 q 1120 854 1095 971 l 1120 822 q 1040 604 1120 776 q 847 433 921 475 q 567 229 584 246 l 996 229 q 902 0 911 5 l 65 0 l 65 3 q 167 243 150 231 q 764 669 182 248 q 800 731 791 696 q 753 764 789 764 l 389 764 q 305 942 389 772 q 294 971 294 960 z "},"3":{"ha":1299,"x_min":68,"x_max":1236,"o":"m 323 972 l 1076 972 q 1236 852 1236 972 l 1236 841 q 1135 561 1236 785 q 1007 469 1095 496 l 1007 466 q 1065 386 1065 433 l 1065 364 q 978 135 1065 318 q 789 0 898 0 l 68 0 l 68 3 l 155 229 l 632 229 q 745 269 716 229 q 778 360 778 345 l 778 368 q 738 404 778 397 l 272 404 l 272 412 l 348 612 l 796 612 q 909 670 891 612 q 927 724 927 714 q 883 764 914 764 l 417 764 q 323 972 323 964 z "},"4":{"ha":1286,"x_min":65,"x_max":1219,"o":"m 327 972 l 618 972 l 618 968 l 436 520 l 444 517 l 742 517 q 888 866 755 530 q 931 972 891 869 l 1219 972 l 1219 968 q 1040 517 1219 962 l 1197 517 l 1197 513 l 1117 309 l 960 309 q 833 0 951 308 l 542 0 q 662 309 662 301 l 65 309 q 294 888 68 336 l 327 972 z "},"5":{"ha":1343,"x_min":68,"x_max":1274,"o":"m 399 970 l 1274 970 q 1180 767 1274 960 l 1180 763 l 609 763 q 547 614 602 763 l 547 610 l 937 610 q 1093 473 1093 610 q 969 131 1093 405 q 780 0 888 0 l 68 0 l 68 3 l 155 229 l 631 229 q 740 273 715 229 q 773 371 773 345 q 704 407 773 407 l 173 407 l 173 411 l 399 970 z "},"6":{"ha":1282,"x_min":69,"x_max":1211,"o":"m 505 970 l 1211 970 l 1211 967 q 1116 764 1211 960 l 640 764 q 545 640 577 764 q 534 610 534 626 l 924 610 q 1076 516 1051 610 q 1080 487 1080 502 l 1080 465 q 960 138 1080 397 q 767 0 882 0 l 193 0 q 69 102 94 0 l 69 145 q 182 462 69 198 q 389 920 350 899 q 505 970 436 970 m 404 273 q 480 229 404 229 l 614 229 q 720 262 699 229 q 760 371 760 328 q 698 407 760 407 l 454 407 q 404 280 444 407 l 404 273 z "},"7":{"ha":1150,"x_min":68,"x_max":1088,"o":"m 68 969 l 1088 969 q 975 733 1006 733 l 518 309 q 398 0 492 269 l 111 0 l 111 3 q 300 446 248 388 q 471 599 332 484 q 656 762 648 751 l 162 762 q 68 969 68 961 z "},"8":{"ha":1282,"x_min":66,"x_max":1216,"o":"m 507 971 l 1067 971 q 1216 859 1188 971 l 1216 819 q 1125 571 1216 777 q 987 488 1043 488 q 1053 374 1053 437 q 950 123 1053 334 q 772 0 871 0 l 197 0 q 66 117 66 16 l 66 149 q 168 414 66 204 q 328 513 248 498 q 256 618 256 561 l 256 637 q 336 844 256 655 q 507 971 401 971 m 543 640 q 619 611 543 611 l 776 611 q 888 669 871 611 q 903 717 903 701 l 903 731 q 856 764 884 764 l 663 764 q 568 706 587 764 l 543 640 m 390 258 q 459 229 390 232 l 619 229 q 739 298 722 229 q 762 363 762 350 q 710 404 751 404 l 521 404 q 390 258 425 404 z "},"9":{"ha":1292,"x_min":68,"x_max":1225,"o":"m 519 971 l 1068 971 q 1210 895 1168 971 q 1225 833 1225 859 q 1126 557 1225 785 q 897 58 958 108 q 770 0 845 0 l 68 0 q 174 229 77 33 l 635 229 q 726 283 710 229 l 755 353 l 748 357 l 395 357 q 210 454 237 357 l 206 477 l 206 509 q 330 829 206 557 q 519 971 412 971 m 526 604 q 606 564 538 564 l 836 564 q 897 717 844 564 l 897 724 q 821 768 897 768 l 668 768 q 559 694 585 768 q 526 604 559 688 z "},"\u0000":{"ha":0,"x_min":0,"x_max":0,"o":""}," ":{"ha":345,"x_min":0,"x_max":0,"o":""},"!":{"ha":456,"x_min":0,"x_max":0,"o":""},"\"":{"ha":456,"x_min":0,"x_max":0,"o":""},"#":{"ha":906,"x_min":0,"x_max":0,"o":""},"$":{"ha":688,"x_min":0,"x_max":0,"o":""},"%":{"ha":1092,"x_min":0,"x_max":0,"o":""},"&":{"ha":1141,"x_min":0,"x_max":0,"o":""},"'":{"ha":235,"x_min":0,"x_max":0,"o":""},"(":{"ha":514,"x_min":0,"x_max":0,"o":""},")":{"ha":514,"x_min":0,"x_max":0,"o":""},"*":{"ha":694,"x_min":0,"x_max":0,"o":""},"+":{"ha":688,"x_min":0,"x_max":0,"o":""},",":{"ha":378,"x_min":0,"x_max":0,"o":""},"-":{"ha":454,"x_min":0,"x_max":0,"o":""},".":{"ha":378,"x_min":0,"x_max":0,"o":""},"/":{"ha":386,"x_min":0,"x_max":0,"o":""},":":{"ha":378,"x_min":0,"x_max":0,"o":""},";":{"ha":378,"x_min":0,"x_max":0,"o":""},"<":{"ha":688,"x_min":0,"x_max":0,"o":""},"=":{"ha":688,"x_min":0,"x_max":0,"o":""},">":{"ha":688,"x_min":0,"x_max":0,"o":""},"?":{"ha":507,"x_min":0,"x_max":0,"o":""},"@":{"ha":1369,"x_min":0,"x_max":0,"o":""},"A":{"ha":1269,"x_min":0,"x_max":1198,"o":"m 210 969 l 1053 969 q 1187 893 1152 969 q 1198 839 1198 861 l 1198 821 q 1046 408 1198 755 l 887 3 l 601 3 l 601 6 l 753 390 l 445 390 q 315 79 436 385 q 279 3 286 7 l 0 3 l 0 6 q 308 763 290 731 q 210 969 210 960 m 525 596 l 833 596 q 883 715 846 596 l 883 734 q 836 763 869 763 l 597 763 q 525 596 588 763 z "},"B":{"ha":1282,"x_min":-3,"x_max":1208,"o":"m 208 971 l 1053 971 q 1208 844 1208 971 q 1118 583 1208 792 q 1035 492 1118 553 q 973 463 973 467 q 1046 355 1046 430 q 955 126 1046 307 q 770 3 873 3 l -3 3 l -3 6 q 302 764 5 35 q 208 968 208 960 l 208 971 m 534 616 l 534 612 l 762 612 q 882 670 863 612 q 897 713 897 707 l 897 721 q 850 764 897 755 l 595 764 q 534 616 589 764 m 378 231 l 618 231 q 723 264 697 231 q 762 369 762 339 q 712 406 750 406 l 451 406 q 378 231 439 399 z "},"C":{"ha":1145,"x_min":1,"x_max":1070,"o":"m 439 969 l 1070 969 l 1070 966 q 987 763 994 763 l 599 763 q 469 621 507 763 q 313 230 313 244 l 718 230 q 823 2 812 37 l 125 2 q 9 78 41 2 q 1 118 1 92 l 1 147 q 128 494 1 204 q 288 875 232 775 q 439 969 357 969 z "},"D":{"ha":1297,"x_min":0,"x_max":1231,"o":"m 204 972 l 1085 972 q 1231 870 1231 957 l 1231 827 q 1100 477 1231 787 q 907 66 960 104 q 768 0 845 0 l 0 0 l 0 3 l 233 593 l 524 593 l 382 229 l 583 229 q 718 273 691 229 q 867 619 736 287 q 899 710 899 692 l 899 725 q 856 765 899 755 l 306 765 q 204 972 279 804 z "},"E":{"ha":1284,"x_min":2,"x_max":1213,"o":"m 213 971 l 1213 971 q 1133 764 1133 769 l 602 764 q 530 593 585 740 l 947 593 l 947 589 q 875 400 875 406 l 456 400 q 384 229 447 400 l 871 229 l 977 3 l 977 0 l 2 0 l 2 3 q 308 764 9 32 q 213 968 213 960 l 213 971 z "},"F":{"ha":1216,"x_min":-1,"x_max":1150,"o":"m 210 971 l 1150 971 l 1150 968 q 1063 764 1073 774 l 598 764 q 526 593 581 740 l 932 593 q 852 401 870 426 l 453 401 q 395 267 443 401 q 286 2 366 201 l -1 2 l -1 5 q 304 764 7 34 q 210 968 210 960 l 210 971 z "},"G":{"ha":1274,"x_min":3,"x_max":1203,"o":"m 441 971 l 1203 971 l 1203 968 q 1116 764 1116 771 l 601 764 q 467 612 507 764 q 336 275 336 306 q 412 231 336 231 l 514 231 q 673 315 650 231 l 713 406 l 707 409 l 562 409 l 562 412 l 637 612 l 1084 612 q 873 111 930 212 q 707 3 798 3 l 126 3 q 10 79 42 3 q 3 119 3 93 l 3 148 q 104 438 3 198 q 300 888 262 840 q 441 971 363 971 z "},"H":{"ha":1358,"x_min":-3,"x_max":1295,"o":"m 673 969 l 673 966 q 532 613 641 878 l 539 609 l 855 609 q 928 777 865 609 q 1011 969 1002 962 l 1295 969 l 1295 966 q 906 -1 1270 897 l 618 -1 l 618 2 l 779 406 l 455 406 q 350 155 444 406 q 281 -1 290 10 l -3 -1 l -3 2 q 386 969 -3 11 l 673 969 z "},"I":{"ha":745,"x_min":1,"x_max":678,"o":"m 678 971 l 678 968 q 289 0 631 843 l 1 0 l 1 3 q 391 971 1 12 l 678 971 z "},"J":{"ha":1082,"x_min":-3,"x_max":1013,"o":"m 722 971 l 1013 971 l 1013 967 q 664 119 709 205 q 489 -1 583 -1 l -3 -1 l -3 2 l 85 228 l 292 228 q 460 319 420 228 q 722 971 471 340 z "},"K":{"ha":1353,"x_min":1,"x_max":1290,"o":"m 674 969 l 674 966 q 519 574 671 949 l 522 574 q 943 969 522 578 l 1290 969 l 1290 962 q 921 614 1282 962 q 732 437 906 607 l 732 433 l 1000 5 l 1000 2 l 692 2 q 450 389 679 11 q 319 75 436 379 q 283 2 287 2 l 1 2 l 1 5 q 388 969 1 14 l 674 969 z "},"L":{"ha":879,"x_min":0,"x_max":810,"o":"m 678 971 l 678 968 l 383 227 l 810 227 l 810 223 q 719 -3 736 50 l 0 -3 l 0 1 q 390 971 0 9 l 678 971 z "},"M":{"ha":1912,"x_min":0,"x_max":1841,"o":"m 211 972 l 943 972 q 1052 895 1001 972 q 1186 972 1107 972 l 1695 972 q 1834 892 1796 972 q 1841 848 1841 866 l 1841 826 q 1703 458 1841 779 q 1517 0 1525 0 l 1234 0 l 1234 3 q 1510 706 1503 679 q 1514 720 1514 712 q 1466 764 1499 764 l 1219 764 q 1139 575 1209 764 q 906 0 1084 452 l 615 0 q 895 709 888 680 l 895 720 q 844 764 895 758 l 600 764 q 484 488 590 755 l 288 0 l 0 0 l 0 3 q 306 764 7 32 q 211 968 211 960 l 211 972 z "},"N":{"ha":1302,"x_min":1,"x_max":1231,"o":"m 212 969 l 1082 969 q 1231 852 1211 969 l 1231 838 q 1140 572 1231 786 l 907 -2 l 616 -2 l 900 707 l 900 722 q 856 762 900 752 l 602 762 q 485 486 591 753 l 289 -2 l 1 -2 l 1 1 q 307 762 9 30 q 212 966 212 958 l 212 969 z "},"O":{"ha":1234,"x_min":2,"x_max":1165,"o":"m 441 968 l 1009 968 q 1162 877 1137 968 q 1165 848 1165 863 l 1165 840 q 1060 543 1165 785 q 852 81 895 111 q 707 -3 791 -3 l 125 -3 q 9 74 41 -3 q 2 114 2 87 l 2 142 q 104 433 2 193 q 300 884 262 836 q 441 968 363 968 m 336 270 q 413 227 336 227 l 515 227 q 674 310 651 227 q 834 709 787 576 q 787 760 824 760 l 602 760 q 467 608 507 760 q 336 270 336 301 z "},"P":{"ha":1282,"x_min":2,"x_max":1211,"o":"m 206 971 l 1065 971 q 1206 891 1170 971 l 1211 865 l 1211 829 q 1086 498 1211 787 q 854 389 1013 389 l 454 389 q 370 192 442 389 q 286 -1 292 3 l 2 -1 l 2 3 q 242 593 231 586 l 745 593 q 843 622 818 593 q 886 731 871 661 q 836 764 872 764 l 308 764 q 206 971 281 802 z "},"Q":{"ha":1234,"x_min":1,"x_max":1166,"o":"m 441 971 l 1010 971 q 1162 880 1138 971 q 1166 851 1166 866 l 1166 844 q 1057 538 1166 787 q 907 261 970 292 l 861 229 l 1075 229 l 1075 225 l 987 -1 l 125 -1 q 9 76 41 -1 q 1 116 1 90 l 1 145 q 132 502 1 204 q 326 920 260 852 q 441 971 385 971 m 336 276 q 424 229 336 229 l 515 229 q 675 313 651 229 q 835 713 787 579 q 787 764 825 764 l 602 764 q 471 622 509 764 q 336 276 347 328 z "},"R":{"ha":1279,"x_min":0,"x_max":1211,"o":"m 211 970 l 1055 970 q 1203 898 1166 970 q 1211 854 1211 873 l 1211 833 q 1105 545 1211 785 q 941 469 1071 495 l 935 469 q 1003 378 1003 429 q 1007 353 1007 374 q 963 0 985 149 l 676 0 l 734 327 q 676 389 726 389 l 447 389 q 367 200 437 383 q 287 0 309 65 l 0 0 l 0 3 l 236 593 l 738 593 q 861 654 842 593 l 884 720 l 884 727 q 836 764 884 757 l 476 764 q 305 767 420 764 l 211 967 l 211 970 z "},"S":{"ha":1196,"x_min":3,"x_max":1130,"o":"m 505 970 l 1130 970 l 1130 967 q 1050 764 1050 773 l 654 764 q 617 738 633 764 l 617 724 q 719 611 617 697 q 911 374 911 431 q 930 269 930 340 q 734 11 930 56 q 635 0 690 0 l 3 0 l 3 3 l 90 229 l 559 229 q 646 273 646 229 q 552 385 646 307 q 319 625 319 604 q 275 749 275 687 l 275 756 q 505 970 275 970 z "},"T":{"ha":1057,"x_min":-1,"x_max":988,"o":"m 75 971 l 988 971 q 908 764 988 965 l 628 764 q 551 585 616 764 q 315 0 544 578 l 24 0 q 330 760 28 15 l 322 764 l -1 764 q 75 971 -1 774 z "},"U":{"ha":1295,"x_min":0,"x_max":1226,"o":"m 315 971 l 606 971 q 337 293 344 319 l 334 275 q 417 231 334 231 l 519 231 q 671 311 639 231 l 936 971 l 1226 971 l 1226 968 q 892 148 928 227 q 704 3 810 3 l 123 3 q 7 79 39 3 q 0 119 0 93 l 0 148 q 123 485 0 206 q 315 971 123 491 z "},"V":{"ha":1284,"x_min":-1,"x_max":1216,"o":"m 209 971 l 673 971 l 379 235 l 379 232 l 481 232 q 676 340 623 232 l 934 971 l 1216 971 q 1061 576 1216 956 q 883 170 940 265 q 578 0 768 0 l 513 0 q -1 3 332 0 l -1 7 q 307 764 -1 18 q 209 971 209 963 z "},"W":{"ha":1826,"x_min":-1,"x_max":1763,"o":"m 209 971 l 673 971 q 379 232 379 239 l 503 232 q 676 337 635 232 l 934 971 l 1220 971 l 1220 968 q 923 232 937 277 l 1039 232 q 1234 366 1185 232 l 1477 971 l 1763 971 l 1763 968 q 1441 181 1491 289 q 1137 0 1308 0 l 1035 0 q 781 3 947 0 q 676 69 729 3 l 676 73 q 586 11 605 11 q 538 3 570 3 l -1 3 l -1 7 q 307 764 -1 17 q 209 971 222 937 z "},"X":{"ha":1368,"x_min":1,"x_max":1312,"o":"m 292 970 l 586 970 q 717 719 593 968 q 964 970 958 968 l 1312 970 l 1312 966 q 844 472 1284 930 q 1087 0 1087 5 l 789 0 q 713 142 773 16 q 633 287 639 286 q 419 58 626 273 q 361 0 419 54 l 1 0 l 1 3 q 513 537 85 94 q 292 970 298 948 z "},"Y":{"ha":1145,"x_min":0,"x_max":1073,"o":"m 160 971 l 451 971 q 334 665 341 699 l 334 654 q 400 611 334 611 l 528 611 q 659 669 625 611 q 782 971 705 768 l 1073 971 q 848 466 898 508 q 684 386 785 386 l 538 386 q 378 0 528 380 l 87 0 l 87 3 q 237 382 237 373 l 237 386 l 127 386 q 0 480 33 386 l 0 531 q 123 873 0 586 q 160 971 160 964 z "},"Z":{"ha":1335,"x_min":3,"x_max":1257,"o":"m 366 971 l 1257 971 l 1257 968 q 563 229 600 273 l 1021 229 l 1021 226 l 934 0 l 3 0 l 3 3 q 723 764 65 73 l 290 764 q 366 971 290 774 z "},"[":{"ha":514,"x_min":0,"x_max":0,"o":""},"\\":{"ha":386,"x_min":0,"x_max":0,"o":""},"]":{"ha":514,"x_min":0,"x_max":0,"o":""},"^":{"ha":688,"x_min":0,"x_max":0,"o":""},"_":{"ha":694,"x_min":0,"x_max":0,"o":""},"`":{"ha":694,"x_min":0,"x_max":0,"o":""},"a":{"ha":1269,"x_min":0,"x_max":1198,"o":"m 210 969 l 1053 969 q 1187 893 1152 969 q 1198 839 1198 861 l 1198 821 q 1046 408 1198 755 l 887 3 l 601 3 l 601 6 l 753 390 l 445 390 q 315 79 436 385 q 279 3 286 7 l 0 3 l 0 6 q 308 763 290 731 q 210 969 210 960 m 525 596 l 833 596 q 883 715 846 596 l 883 734 q 836 763 869 763 l 597 763 q 525 596 588 763 z "},"b":{"ha":1277,"x_min":-3,"x_max":1208,"o":"m 208 971 l 1053 971 q 1208 844 1208 971 q 1118 583 1208 792 q 1035 492 1118 553 q 973 463 973 467 q 1046 355 1046 430 q 955 126 1046 307 q 770 3 873 3 l -3 3 l -3 6 q 302 764 5 35 q 208 968 208 960 l 208 971 m 534 616 l 534 612 l 762 612 q 882 670 863 612 q 897 713 897 707 l 897 721 q 850 764 897 755 l 595 764 q 534 616 589 764 m 378 231 l 618 231 q 723 264 697 231 q 762 369 762 339 q 712 406 750 406 l 451 406 q 378 231 439 399 z "},"c":{"ha":1145,"x_min":1,"x_max":1070,"o":"m 439 969 l 1070 969 l 1070 966 q 987 763 994 763 l 599 763 q 469 621 507 763 q 313 230 313 244 l 718 230 q 823 2 812 37 l 125 2 q 9 78 41 2 q 1 118 1 92 l 1 147 q 128 494 1 204 q 288 875 232 775 q 439 969 357 969 z "},"d":{"ha":1299,"x_min":0,"x_max":1231,"o":"m 204 972 l 1085 972 q 1231 870 1231 957 l 1231 827 q 1100 477 1231 787 q 907 66 960 104 q 768 0 845 0 l 0 0 l 0 3 l 233 593 l 524 593 l 382 229 l 583 229 q 718 273 691 229 q 867 619 736 287 q 899 710 899 692 l 899 725 q 856 765 899 755 l 306 765 q 204 972 279 804 z "},"e":{"ha":1292,"x_min":2,"x_max":1213,"o":"m 213 971 l 1213 971 q 1133 764 1133 769 l 602 764 q 530 593 585 740 l 947 593 l 947 589 q 875 400 875 406 l 456 400 q 384 229 447 400 l 871 229 l 977 3 l 977 0 l 2 0 l 2 3 q 308 764 9 32 q 213 968 213 960 l 213 971 z "},"f":{"ha":1219,"x_min":-1,"x_max":1150,"o":"m 210 971 l 1150 971 l 1150 968 q 1063 764 1073 774 l 598 764 q 526 593 581 740 l 932 593 q 852 401 870 426 l 453 401 q 395 267 443 401 q 286 2 366 201 l -1 2 l -1 5 q 304 764 7 34 q 210 968 210 960 l 210 971 z "},"g":{"ha":1272,"x_min":3,"x_max":1203,"o":"m 441 971 l 1203 971 l 1203 968 q 1116 764 1116 771 l 601 764 q 467 612 507 764 q 336 275 336 306 q 412 231 336 231 l 514 231 q 673 315 650 231 l 713 406 l 707 409 l 562 409 l 562 412 l 637 612 l 1084 612 q 873 111 930 212 q 707 3 798 3 l 126 3 q 10 79 42 3 q 3 119 3 93 l 3 148 q 104 438 3 198 q 300 888 262 840 q 441 971 363 971 z "},"h":{"ha":1360,"x_min":-3,"x_max":1295,"o":"m 673 969 l 673 966 q 532 613 641 878 l 539 609 l 855 609 q 928 777 865 609 q 1011 969 1002 962 l 1295 969 l 1295 966 q 906 -1 1270 897 l 618 -1 l 618 2 l 779 406 l 455 406 q 350 155 444 406 q 281 -1 290 10 l -3 -1 l -3 2 q 386 969 -3 11 l 673 969 z "},"i":{"ha":745,"x_min":1,"x_max":678,"o":"m 678 971 l 678 968 q 289 0 631 843 l 1 0 l 1 3 q 391 971 1 12 l 678 971 z "},"j":{"ha":1084,"x_min":-3,"x_max":1013,"o":"m 722 971 l 1013 971 l 1013 967 q 664 119 709 205 q 489 -1 583 -1 l -3 -1 l -3 2 l 85 228 l 292 228 q 460 319 420 228 q 722 971 471 340 z "},"k":{"ha":1358,"x_min":1,"x_max":1290,"o":"m 674 969 l 674 966 q 519 574 671 949 l 522 574 q 943 969 522 578 l 1290 969 l 1290 962 q 921 614 1282 962 q 732 437 906 607 l 732 433 l 1000 5 l 1000 2 l 692 2 q 450 389 679 11 q 319 75 436 379 q 283 2 287 2 l 1 2 l 1 5 q 388 969 1 14 l 674 969 z "},"l":{"ha":884,"x_min":0,"x_max":810,"o":"m 678 971 l 678 968 l 383 227 l 810 227 l 810 223 q 719 -3 736 50 l 0 -3 l 0 1 q 390 971 0 9 l 678 971 z "},"m":{"ha":1908,"x_min":0,"x_max":1841,"o":"m 211 972 l 943 972 q 1052 895 1001 972 q 1186 972 1107 972 l 1695 972 q 1834 892 1796 972 q 1841 848 1841 866 l 1841 826 q 1703 458 1841 779 q 1517 0 1525 0 l 1234 0 l 1234 3 q 1510 706 1503 679 q 1514 720 1514 712 q 1466 764 1499 764 l 1219 764 q 1139 575 1209 764 q 906 0 1084 452 l 615 0 q 895 709 888 680 l 895 720 q 844 764 895 758 l 600 764 q 484 488 590 755 l 288 0 l 0 0 l 0 3 q 306 764 7 32 q 211 968 211 960 l 211 972 z "},"n":{"ha":1297,"x_min":1,"x_max":1231,"o":"m 212 969 l 1082 969 q 1231 852 1211 969 l 1231 838 q 1140 572 1231 786 l 907 -2 l 616 -2 l 900 707 l 900 722 q 856 762 900 752 l 602 762 q 485 486 591 753 l 289 -2 l 1 -2 l 1 1 q 307 762 9 30 q 212 966 212 958 l 212 969 z "},"o":{"ha":1234,"x_min":2,"x_max":1165,"o":"m 441 968 l 1009 968 q 1162 877 1137 968 q 1165 848 1165 863 l 1165 840 q 1060 543 1165 785 q 852 81 895 111 q 707 -3 791 -3 l 125 -3 q 9 74 41 -3 q 2 114 2 87 l 2 142 q 104 433 2 193 q 300 884 262 836 q 441 968 363 968 m 336 270 q 413 227 336 227 l 515 227 q 674 310 651 227 q 834 709 787 576 q 787 760 824 760 l 602 760 q 467 608 507 760 q 336 270 336 301 z "},"p":{"ha":1277,"x_min":2,"x_max":1211,"o":"m 206 971 l 1065 971 q 1206 891 1170 971 l 1211 865 l 1211 829 q 1086 498 1211 787 q 854 389 1013 389 l 454 389 q 370 192 442 389 q 286 -1 292 3 l 2 -1 l 2 3 q 242 593 231 586 l 745 593 q 843 622 818 593 q 886 731 871 661 q 836 764 872 764 l 308 764 q 206 971 281 802 z "},"q":{"ha":1229,"x_min":1,"x_max":1166,"o":"m 441 971 l 1010 971 q 1162 880 1138 971 q 1166 851 1166 866 l 1166 844 q 1057 538 1166 787 q 907 261 970 292 l 861 229 l 1075 229 l 1075 225 l 987 -1 l 125 -1 q 9 76 41 -1 q 1 116 1 90 l 1 145 q 132 502 1 204 q 326 920 260 852 q 441 971 385 971 m 336 276 q 424 229 336 229 l 515 229 q 675 313 651 229 q 835 713 787 579 q 787 764 825 764 l 602 764 q 471 622 509 764 q 336 276 347 328 z "},"r":{"ha":1279,"x_min":0,"x_max":1211,"o":"m 211 970 l 1055 970 q 1203 898 1166 970 q 1211 854 1211 873 l 1211 833 q 1105 545 1211 785 q 941 469 1071 495 l 935 469 q 1003 378 1003 429 q 1007 353 1007 374 q 963 0 985 149 l 676 0 l 734 327 q 676 389 726 389 l 447 389 q 367 200 437 383 q 287 0 309 65 l 0 0 l 0 3 l 236 593 l 738 593 q 861 654 842 593 l 884 720 l 884 727 q 836 764 884 757 l 476 764 q 305 767 420 764 l 211 967 l 211 970 z "},"s":{"ha":1211,"x_min":3,"x_max":1130,"o":"m 505 970 l 1130 970 l 1130 967 q 1050 764 1050 773 l 654 764 q 617 738 633 764 l 617 724 q 719 611 617 697 q 911 374 911 431 q 930 269 930 340 q 734 11 930 56 q 635 0 690 0 l 3 0 l 3 3 l 90 229 l 559 229 q 646 273 646 229 q 552 385 646 307 q 319 625 319 604 q 275 749 275 687 l 275 756 q 505 970 275 970 z "},"t":{"ha":1059,"x_min":-1,"x_max":988,"o":"m 75 971 l 988 971 q 908 764 988 965 l 628 764 q 551 585 616 764 q 315 0 544 578 l 24 0 q 330 760 28 15 l 322 764 l -1 764 q 75 971 -1 774 z "},"u":{"ha":1297,"x_min":0,"x_max":1226,"o":"m 315 971 l 606 971 q 337 293 344 319 l 334 275 q 417 231 334 231 l 519 231 q 671 311 639 231 l 936 971 l 1226 971 l 1226 968 q 892 148 928 227 q 704 3 810 3 l 123 3 q 7 79 39 3 q 0 119 0 93 l 0 148 q 123 485 0 206 q 315 971 123 491 z "},"v":{"ha":1289,"x_min":-1,"x_max":1216,"o":"m 209 971 l 673 971 l 379 235 l 379 232 l 481 232 q 676 340 623 232 l 934 971 l 1216 971 q 1061 576 1216 956 q 883 170 940 265 q 578 0 768 0 l 513 0 q -1 3 332 0 l -1 7 q 307 764 -1 18 q 209 971 209 963 z "},"w":{"ha":1832,"x_min":-1,"x_max":1763,"o":"m 209 971 l 673 971 q 379 232 379 239 l 503 232 q 676 337 635 232 l 934 971 l 1220 971 l 1220 968 q 923 232 937 277 l 1039 232 q 1234 366 1185 232 l 1477 971 l 1763 971 l 1763 968 q 1441 181 1491 289 q 1137 0 1308 0 l 1035 0 q 781 3 947 0 q 676 69 729 3 l 676 73 q 586 11 605 11 q 538 3 570 3 l -1 3 l -1 7 q 307 764 -1 17 q 209 971 222 937 z "},"x":{"ha":1383,"x_min":1,"x_max":1312,"o":"m 292 970 l 586 970 q 717 719 593 968 q 964 970 958 968 l 1312 970 l 1312 966 q 844 472 1284 930 q 1087 0 1087 5 l 789 0 q 713 142 773 16 q 633 287 639 286 q 419 58 626 273 q 361 0 419 54 l 1 0 l 1 3 q 513 537 85 94 q 292 970 298 948 z "},"y":{"ha":1153,"x_min":0,"x_max":1073,"o":"m 160 971 l 451 971 q 334 665 341 699 l 334 654 q 400 611 334 611 l 528 611 q 659 669 625 611 q 782 971 705 768 l 1073 971 q 848 466 898 508 q 684 386 785 386 l 538 386 q 378 0 528 380 l 87 0 l 87 3 q 237 382 237 373 l 237 386 l 127 386 q 0 480 33 386 l 0 531 q 123 873 0 586 q 160 971 160 964 z "},"z":{"ha":1322,"x_min":3,"x_max":1257,"o":"m 366 971 l 1257 971 l 1257 968 q 563 229 600 273 l 1021 229 l 1021 226 l 934 0 l 3 0 l 3 3 q 723 764 65 73 l 290 764 q 366 971 290 774 z "},"{":{"ha":688,"x_min":0,"x_max":0,"o":""},"|":{"ha":688,"x_min":0,"x_max":0,"o":""},"}":{"ha":688,"x_min":0,"x_max":0,"o":""},"~":{"ha":688,"x_min":0,"x_max":0,"o":""},"¡":{"ha":456,"x_min":0,"x_max":0,"o":""},"¢":{"ha":772,"x_min":0,"x_max":0,"o":""},"£":{"ha":688,"x_min":0,"x_max":0,"o":""},"¤":{"ha":688,"x_min":0,"x_max":0,"o":""},"¥":{"ha":856,"x_min":0,"x_max":0,"o":""},"¦":{"ha":688,"x_min":0,"x_max":0,"o":""},"§":{"ha":688,"x_min":0,"x_max":0,"o":""},"¨":{"ha":694,"x_min":0,"x_max":0,"o":""},"©":{"ha":1135,"x_min":0,"x_max":0,"o":""},"ª":{"ha":439,"x_min":0,"x_max":0,"o":""},"«":{"ha":640,"x_min":0,"x_max":0,"o":""},"¬":{"ha":688,"x_min":0,"x_max":0,"o":""},"®":{"ha":1135,"x_min":0,"x_max":0,"o":""},"¯":{"ha":454,"x_min":0,"x_max":0,"o":""},"°":{"ha":457,"x_min":0,"x_max":0,"o":""},"±":{"ha":688,"x_min":0,"x_max":0,"o":""},"²":{"ha":688,"x_min":0,"x_max":0,"o":""},"³":{"ha":688,"x_min":0,"x_max":0,"o":""},"´":{"ha":694,"x_min":0,"x_max":0,"o":""},"µ":{"ha":800,"x_min":0,"x_max":0,"o":""},"¶":{"ha":694,"x_min":0,"x_max":0,"o":""},"·":{"ha":345,"x_min":0,"x_max":0,"o":""},"¸":{"ha":694,"x_min":0,"x_max":0,"o":""},"¹":{"ha":688,"x_min":0,"x_max":0,"o":""},"º":{"ha":487,"x_min":0,"x_max":0,"o":""},"»":{"ha":640,"x_min":0,"x_max":0,"o":""},"¼":{"ha":1158,"x_min":0,"x_max":0,"o":""},"½":{"ha":1332,"x_min":0,"x_max":0,"o":""},"¾":{"ha":1158,"x_min":0,"x_max":0,"o":""},"¿":{"ha":507,"x_min":0,"x_max":0,"o":""},"À":{"ha":1044,"x_min":0,"x_max":0,"o":""},"Á":{"ha":1044,"x_min":0,"x_max":0,"o":""},"Â":{"ha":1044,"x_min":0,"x_max":0,"o":""},"Ã":{"ha":1044,"x_min":0,"x_max":0,"o":""},"Ä":{"ha":1044,"x_min":0,"x_max":0,"o":""},"Å":{"ha":1044,"x_min":0,"x_max":0,"o":""},"Æ":{"ha":1436,"x_min":0,"x_max":0,"o":""},"Ç":{"ha":949,"x_min":0,"x_max":0,"o":""},"È":{"ha":781,"x_min":0,"x_max":0,"o":""},"É":{"ha":781,"x_min":0,"x_max":0,"o":""},"Ê":{"ha":781,"x_min":0,"x_max":0,"o":""},"Ë":{"ha":781,"x_min":0,"x_max":0,"o":""},"Ì":{"ha":446,"x_min":0,"x_max":0,"o":""},"Í":{"ha":446,"x_min":0,"x_max":0,"o":""},"Î":{"ha":446,"x_min":0,"x_max":0,"o":""},"Ï":{"ha":446,"x_min":0,"x_max":0,"o":""},"Ð":{"ha":1029,"x_min":0,"x_max":0,"o":""},"Ñ":{"ha":1054,"x_min":0,"x_max":0,"o":""},"Ò":{"ha":1095,"x_min":0,"x_max":0,"o":""},"Ó":{"ha":1095,"x_min":0,"x_max":0,"o":""},"Ô":{"ha":1095,"x_min":0,"x_max":0,"o":""},"Õ":{"ha":1095,"x_min":0,"x_max":0,"o":""},"Ö":{"ha":1095,"x_min":0,"x_max":0,"o":""},"×":{"ha":688,"x_min":0,"x_max":0,"o":""},"Ø":{"ha":1095,"x_min":0,"x_max":0,"o":""},"Ù":{"ha":1018,"x_min":0,"x_max":0,"o":""},"Ú":{"ha":1018,"x_min":0,"x_max":0,"o":""},"Û":{"ha":1018,"x_min":0,"x_max":0,"o":""},"Ü":{"ha":1018,"x_min":0,"x_max":0,"o":""},"Ý":{"ha":836,"x_min":0,"x_max":0,"o":""},"Þ":{"ha":760,"x_min":0,"x_max":0,"o":""},"ß":{"ha":848,"x_min":0,"x_max":0,"o":""},"à":{"ha":625,"x_min":0,"x_max":0,"o":""},"á":{"ha":625,"x_min":0,"x_max":0,"o":""},"â":{"ha":625,"x_min":0,"x_max":0,"o":""},"ã":{"ha":625,"x_min":0,"x_max":0,"o":""},"ä":{"ha":625,"x_min":0,"x_max":0,"o":""},"å":{"ha":625,"x_min":0,"x_max":0,"o":""},"æ":{"ha":986,"x_min":0,"x_max":0,"o":""},"ç":{"ha":614,"x_min":0,"x_max":0,"o":""},"è":{"ha":616,"x_min":0,"x_max":0,"o":""},"é":{"ha":616,"x_min":0,"x_max":0,"o":""},"ê":{"ha":616,"x_min":0,"x_max":0,"o":""},"ë":{"ha":616,"x_min":0,"x_max":0,"o":""},"ì":{"ha":349,"x_min":0,"x_max":0,"o":""},"í":{"ha":349,"x_min":0,"x_max":0,"o":""},"î":{"ha":349,"x_min":0,"x_max":0,"o":""},"ï":{"ha":349,"x_min":0,"x_max":0,"o":""},"ð":{"ha":772,"x_min":0,"x_max":0,"o":""},"ñ":{"ha":751,"x_min":0,"x_max":0,"o":""},"ò":{"ha":685,"x_min":0,"x_max":0,"o":""},"ó":{"ha":685,"x_min":0,"x_max":0,"o":""},"ô":{"ha":685,"x_min":0,"x_max":0,"o":""},"õ":{"ha":685,"x_min":0,"x_max":0,"o":""},"ö":{"ha":685,"x_min":0,"x_max":0,"o":""},"÷":{"ha":688,"x_min":0,"x_max":0,"o":""},"ø":{"ha":685,"x_min":0,"x_max":0,"o":""},"ù":{"ha":718,"x_min":0,"x_max":0,"o":""},"ú":{"ha":718,"x_min":0,"x_max":0,"o":""},"û":{"ha":718,"x_min":0,"x_max":0,"o":""},"ü":{"ha":718,"x_min":0,"x_max":0,"o":""},"ý":{"ha":589,"x_min":0,"x_max":0,"o":""},"þ":{"ha":685,"x_min":0,"x_max":0,"o":""},"ÿ":{"ha":589,"x_min":0,"x_max":0,"o":""},"ı":{"ha":349,"x_min":0,"x_max":0,"o":""},"ˆ":{"ha":694,"x_min":0,"x_max":0,"o":""},"ˇ":{"ha":694,"x_min":0,"x_max":0,"o":""},"ˉ":{"ha":694,"x_min":0,"x_max":0,"o":""},"˘":{"ha":694,"x_min":0,"x_max":0,"o":""},"˙":{"ha":694,"x_min":0,"x_max":0,"o":""},"˚":{"ha":694,"x_min":0,"x_max":0,"o":""},"˛":{"ha":694,"x_min":0,"x_max":0,"o":""},"˜":{"ha":694,"x_min":0,"x_max":0,"o":""},"˝":{"ha":694,"x_min":0,"x_max":0,"o":""},"–":{"ha":751,"x_min":0,"x_max":0,"o":""},"—":{"ha":1389,"x_min":0,"x_max":0,"o":""},"‘":{"ha":378,"x_min":0,"x_max":0,"o":""},"’":{"ha":378,"x_min":0,"x_max":0,"o":""},"‚":{"ha":378,"x_min":0,"x_max":0,"o":""},"“":{"ha":617,"x_min":0,"x_max":0,"o":""},"”":{"ha":617,"x_min":0,"x_max":0,"o":""},"„":{"ha":617,"x_min":0,"x_max":0,"o":""},"†":{"ha":688,"x_min":0,"x_max":0,"o":""},"‡":{"ha":688,"x_min":0,"x_max":0,"o":""},"•":{"ha":694,"x_min":0,"x_max":0,"o":""},"…":{"ha":1389,"x_min":0,"x_max":0,"o":""},"‹":{"ha":428,"x_min":0,"x_max":0,"o":""},"›":{"ha":428,"x_min":0,"x_max":0,"o":""},"⁄":{"ha":232,"x_min":0,"x_max":0,"o":""},"₣":{"ha":688,"x_min":0,"x_max":0,"o":""},"₤":{"ha":688,"x_min":0,"x_max":0,"o":""},"₧":{"ha":1375,"x_min":0,"x_max":0,"o":""},"€":{"ha":688,"x_min":0,"x_max":0,"o":""},"№":{"ha":1540,"x_min":0,"x_max":0,"o":""},"™":{"ha":1015,"x_min":0,"x_max":0,"o":""},"∂":{"ha":688,"x_min":0,"x_max":0,"o":""},"∆":{"ha":733,"x_min":0,"x_max":0,"o":""},"∏":{"ha":1027,"x_min":0,"x_max":0,"o":""},"∑":{"ha":818,"x_min":0,"x_max":0,"o":""},"−":{"ha":688,"x_min":0,"x_max":0,"o":""},"√":{"ha":688,"x_min":0,"x_max":0,"o":""},"∞":{"ha":688,"x_min":0,"x_max":0,"o":""},"∫":{"ha":451,"x_min":0,"x_max":0,"o":""},"≈":{"ha":688,"x_min":0,"x_max":0,"o":""},"≤":{"ha":688,"x_min":0,"x_max":0,"o":""},"≥":{"ha":688,"x_min":0,"x_max":0,"o":""},"":{"ha":728,"x_min":0,"x_max":0,"o":""},"":{"ha":733,"x_min":0,"x_max":0,"o":""}}}
